<?xml version="1.0" encoding="utf-8"?>
<!-- Generator: Adobe Illustrator 23.0.5, SVG Export Plug-In . SVG Version: 6.00 Build 0)  -->
<svg version="1.1" id="Capa_1" xmlns="http://www.w3.org/2000/svg" xmlns:xlink="http://www.w3.org/1999/xlink" x="0px" y="0px"
	 viewBox="0 0 297.64 270.1" style="enable-background:new 0 0 297.64 270.1;" xml:space="preserve">
<style type="text/css">
	.st0{fill:none;stroke:#F8F8F7;stroke-miterlimit:10;}
	.st1{fill:#F8F8F7;}
</style>
<ellipse transform="matrix(0.9221 -0.3868 0.3868 0.9221 -40.4139 68.0353)" class="st0" cx="148.82" cy="134.42" rx="59.45" ry="59.45"/>
<g>
	<path class="st1" d="M148.82,129.13L148.82,129.13c-17.35,0-31.42,14.07-31.42,31.42l0,0c0,4.55,3.69,8.24,8.24,8.24h46.35
		c4.55,0,8.24-3.69,8.24-8.24l0,0C180.24,143.2,166.17,129.13,148.82,129.13z"/>
</g>
<g>
	<path class="st1" d="M165.75,106.4c0,9.35-7.58,16.93-16.93,16.93s-16.93-7.58-16.93-16.93c0-9.35,7.58-16.93,16.93-16.93
		S165.75,97.05,165.75,106.4z"/>
</g>
</svg>
